<?xml version="1.0" encoding="utf-8"?>
<!-- Generator: Adobe Illustrator 24.1.1, SVG Export Plug-In . SVG Version: 6.00 Build 0)  -->
<svg version="1.1" id="Layer_1" xmlns="http://www.w3.org/2000/svg" xmlns:xlink="http://www.w3.org/1999/xlink" x="0px" y="0px"
	 viewBox="0 0 280 100" style="enable-background:new 0 0 280 100;" xml:space="preserve">
<style type="text/css">
	.st0{fill:#1428A0;}
	.st1{fill:#FFFFFF;}
</style>
<path class="st0" d="M168.6,8.9v7.3h14.4V8.9H168.6z M171.3,13.8v-2.6h8.9v2.6H171.3z"/>
<path class="st0" d="M184.5,20v-2.4h-17.6V20h7.3v1.4h-5.8v2.4h11.7v1.1h-8.9v0h-2.7V31h14.4v-2.4h-11.6v-1.4h11.6v-5.9H177V20
	H184.5z"/>
<path class="st0" d="M204.6,13.4H202V8.3h-2.7v15.6h2.7v-8h2.6V13.4z"/>
<path class="st0" d="M191.4,28.6v-7.3h-2.7V31h13.5v-2.4H191.4z"/>
<path class="st0" d="M191.4,14.4c-0.8,2.7-4.3,5-4.3,5l-1.5-2c4.8-2.4,4.4-8.8,4.4-8.8h2.6c0,0-0.4,6.4,4.4,8.8l-1.5,2
	C195.6,19.4,192.2,17.1,191.4,14.4L191.4,14.4z"/>
<path class="st0" d="M142.6,8.5v11.7h2.8v-4.4h2.5v-2.4h-2.4v-5H142.6z"/>
<path class="st0" d="M132.1,30.8v-9.6h13.4v9.6H132.1z M142.8,28.5v-4.9h-7.9v4.9H142.8z"/>
<path class="st0" d="M157.8,31.6c-4.2,0-7.5-2.6-7.5-5.7c0-3.2,3.4-5.7,7.5-5.7c4.1,0,7.5,2.6,7.5,5.7C165.3,29,162,31.6,157.8,31.6
	z M162.5,25.9c0-1.8-2.1-3.2-4.7-3.2c-2.6,0-4.7,1.4-4.7,3.2c0,1.8,2.1,3.2,4.7,3.2C160.4,29.1,162.5,27.6,162.5,25.9z"/>
<path class="st0" d="M135.9,8.9c0,0-0.4,6.4,4.7,9l-1.5,2c0,0-3.7-2.5-4.6-5.2c-0.8,2.7-4.6,5.2-4.6,5.2l-1.5-2c5.1-2.6,4.7-9,4.7-9
	H135.9z"/>
<path class="st0" d="M153.5,14.8c-0.8,2.7-4.2,5-4.2,5l-1.5-2c4.8-2.4,4.4-8.8,4.4-8.8h2.6c0,0-0.4,6.4,4.4,8.8l-1.5,2
	C157.8,19.8,154.4,17.5,153.5,14.8z"/>
<path class="st0" d="M164.8,8.5v11.8H162v-5.4h-3.6v-2.4h3.6v-4H164.8z"/>
<path class="st0" d="M214.9,25.7v3.6h8.5v1.6h-9.9v-5.2H214.9z M212.4,25.8l-1.1-1.4c1.5-0.9,2.7-1.9,3.6-3.2
	c0.9-1.3,1.4-2.7,1.5-4.2h-4.1v-1.6h5.6c0,1.7-0.2,3.1-0.6,4.4c-0.4,1.2-1.1,2.4-1.9,3.4C214.7,23.9,213.7,24.8,212.4,25.8
	L212.4,25.8z M222.9,27.4h-1.3V21h-3.8v-1.6h3.8v-4.9h1.3V27.4z"/>
<path class="st0" d="M225.8,22.6c0.8-0.9,1.5-2,2-3.4c0.5-1.4,0.8-2.8,0.8-4.3v-0.2h1.4l-0.1,1.2c0.1,1.1,0.4,2.3,0.9,3.5
	c0.5,1.2,1,2.2,1.6,2.9l-1,1.2c-0.4-0.5-0.8-1.2-1.2-2.1c-0.4-0.9-0.8-1.7-1-2.4c-0.2,0.7-0.5,1.6-1,2.5c-0.5,1-0.9,1.7-1.3,2.2
	L225.8,22.6L225.8,22.6z M227.7,23.8h9.9V28H229v1.3h9.2v1.6h-10.5v-4.4h8.6v-1.1h-8.6L227.7,23.8L227.7,23.8z M237.6,23h-1.3v-3.7
	h-3.6v-1.6h3.6v-3.3h1.3V23L237.6,23z"/>
<path class="st0" d="M243.9,18.2h7.3v2.2h-7.3V18.2z M248.2,25.3h5.7v-1.6h-12.8v1.6h5.8v6.2h1.3V25.3z M242.6,21.9h9.9v-7.2h-1.3
	v1.8h-7.3v-1.8h-1.3V21.9z"/>
<path class="st0" d="M258.6,16.7h7.2v2.5h-7.2V16.7z M257.3,30.7h10.2v-1.6h-8.8v-3h-1.3V30.7z M268.6,23.9v-1.6h-12.8v1.6h6v3.8
	h1.3v-3.8H268.6z M257.3,20.7h9.8v-5.7h-9.8V20.7z"/>
<path class="st0" d="M108.1,11.1c-1.4-8-25.4-10.5-53.5-5.6C42.7,7.6,32,10.6,23.7,14c1.3,0,2.2,0.3,2.8,0.9
	c0.4,0.4,0.7,1.1,0.7,1.8v0.8h-2.8v-0.7c0-0.6-0.3-0.9-1-0.9c-0.5,0-0.8,0.2-0.9,0.7c0,0.1,0,0.4,0,0.6c0.3,1.2,4.4,2,4.8,4.2
	c0.1,0.3,0.1,0.9,0,1.8c-0.3,1.8-1.8,2.5-3.9,2.5c-2.8,0-3.9-1.3-3.9-3.2v-0.9h3v1.1c0,0.6,0.4,0.9,1,0.9c0.6,0,0.9-0.2,1-0.7
	c0.1-0.2,0.1-0.5,0-0.8c-0.5-1.4-4.4-2-4.8-4.2c-0.1-0.5-0.1-0.9,0-1.5c0-0.3,0.1-0.5,0.2-0.8C10.7,20,5.4,24.7,6.1,28.8
	c1.4,8,25.4,10.5,53.5,5.6c12.4-2.2,23.5-5.4,32-9c-0.1,0-0.2,0-0.4,0c-1.9,0-3.7-0.7-3.8-2.7c0-0.4,0-0.5,0-0.7v-4.5
	c0-0.2,0-0.5,0-0.7c0.2-1.9,1.7-2.7,3.8-2.7c1.6,0,3.6,0.5,3.8,2.7c0,0.3,0,0.6,0,0.7v0.4h-2.8v-0.6c0,0,0-0.3,0-0.4
	c0-0.2-0.2-0.8-1-0.8c-0.8,0-1,0.5-1,0.8c0,0.1,0,0.3,0,0.5v4.9c0,0.2,0,0.3,0,0.4c0,0.1,0.2,0.8,1.1,0.8s1-0.7,1.1-0.8
	c0-0.1,0-0.3,0-0.4v-1.5h-1.1v-1.6h3.9V22c0,0.2,0,0.3,0,0.7c0,0.5-0.2,1-0.5,1.3C103.6,19.8,108.8,15.1,108.1,11.1L108.1,11.1z
	 M35,25.2l-1.4-9.6h0l-1.5,9.6h-3l2-10.8H36l2,10.8H35z M49.4,25.2l-0.1-9.4h0l-1.8,9.4h-2.8L43,15.8h0l-0.1,9.4h-2.8l0.2-10.8h4.5
	l1.3,8.1h0.1l1.3-8.1h4.5l0.2,10.8H49.4z M62.4,23.1c-0.3,2.1-2.4,2.5-3.8,2.5c-2.4,0-3.9-1-3.9-3.1v-0.9h2.9v1.1
	c0,0.6,0.4,0.9,1,0.9c0.6,0,0.9-0.2,1-0.7c0.1-0.2,0.1-0.5,0-0.8c-0.5-1.3-4.3-2-4.8-4.2c-0.1-0.5-0.1-0.9,0-1.5
	c0.3-2,2.2-2.4,3.8-2.4c1.4,0,2.4,0.3,3,0.9c0.4,0.4,0.7,1.1,0.7,1.8v0.8h-2.7v-0.7c0-0.6-0.4-0.9-1-0.9c-0.5,0-0.8,0.2-0.9,0.7
	c0,0.1,0,0.3,0,0.5c0.3,1.2,4.4,1.9,4.8,4.1C62.5,21.6,62.5,22.2,62.4,23.1L62.4,23.1z M72.5,22.1c0,0.2,0,0.6,0,0.7
	c-0.2,1.8-1.4,2.7-3.8,2.7c-2.3,0-3.6-0.9-3.8-2.7c0-0.1,0-0.5,0-0.7v-7.8h2.8v8c0,0.2,0,0.3,0,0.4c0,0.2,0.2,0.8,1,0.8
	c0.8,0,1-0.6,1-0.8c0-0.1,0-0.2,0-0.4v-8h2.8V22.1z M80.7,25.1l-2.6-8.6h0l0.1,8.6h-2.7V14.4h4.1l2.4,8.3H82l-0.1-8.3h2.7v10.7H80.7
	z"/>
<path class="st1" d="M168.6,68.9v7.3h14.4v-7.3H168.6z M171.3,73.9v-2.6h8.9v2.6H171.3z"/>
<path class="st1" d="M184.5,80v-2.4h-17.6V80h7.3v1.4h-5.8v2.4h11.7v1.1h-8.9v0h-2.7v6.1h14.4v-2.4h-11.6v-1.4h11.6v-5.9H177V80
	H184.5z"/>
<path class="st1" d="M204.6,73.5H202v-5.1h-2.7v15.6h2.7v-8h2.6V73.5z"/>
<path class="st1" d="M191.4,88.6v-7.3h-2.7V91h13.5v-2.4H191.4z"/>
<path class="st1" d="M191.4,74.5c-0.8,2.7-4.3,5-4.3,5l-1.5-2c4.8-2.4,4.4-8.8,4.4-8.8h2.6c0,0-0.4,6.4,4.4,8.8l-1.5,2
	C195.6,79.5,192.2,77.2,191.4,74.5L191.4,74.5z"/>
<path class="st1" d="M142.6,68.5v11.7h2.8v-4.4h2.5v-2.4h-2.4v-5H142.6z"/>
<path class="st1" d="M132.1,90.9v-9.6h13.4v9.6H132.1z M142.8,88.5v-4.9h-7.9v4.9H142.8z"/>
<path class="st1" d="M157.8,91.6c-4.2,0-7.5-2.6-7.5-5.7c0-3.2,3.4-5.7,7.5-5.7c4.1,0,7.5,2.6,7.5,5.7
	C165.3,89.1,162,91.6,157.8,91.6z M162.5,85.9c0-1.8-2.1-3.2-4.7-3.2c-2.6,0-4.7,1.4-4.7,3.2c0,1.8,2.1,3.2,4.7,3.2
	C160.4,89.1,162.5,87.7,162.5,85.9z"/>
<path class="st1" d="M135.9,69c0,0-0.4,6.4,4.7,9l-1.5,2c0,0-3.7-2.5-4.6-5.2c-0.8,2.7-4.6,5.2-4.6,5.2l-1.5-2c5.1-2.6,4.7-9,4.7-9
	H135.9z"/>
<path class="st1" d="M153.5,74.8c-0.8,2.7-4.2,5-4.2,5l-1.5-2c4.8-2.4,4.4-8.8,4.4-8.8h2.6c0,0-0.4,6.4,4.4,8.8l-1.5,2
	C157.8,79.8,154.4,77.5,153.5,74.8z"/>
<path class="st1" d="M164.8,68.5v11.8H162v-5.4h-3.6v-2.4h3.6v-4H164.8z"/>
<path class="st1" d="M214.9,85.7v3.6h8.5V91h-9.9v-5.2H214.9z M212.4,85.8l-1.1-1.4c1.5-0.9,2.7-1.9,3.6-3.2
	c0.9-1.3,1.4-2.7,1.5-4.2h-4.1v-1.6h5.6c0,1.7-0.2,3.1-0.6,4.4c-0.4,1.2-1.1,2.4-1.9,3.4C214.7,83.9,213.7,84.8,212.4,85.8
	L212.4,85.8z M222.9,87.5h-1.3V81h-3.8v-1.6h3.8v-4.9h1.3V87.5z"/>
<path class="st1" d="M225.8,82.6c0.8-0.9,1.5-2,2-3.4c0.5-1.4,0.8-2.8,0.8-4.3v-0.2h1.4l-0.1,1.2c0.1,1.1,0.4,2.3,0.9,3.5
	c0.5,1.2,1,2.2,1.6,2.9l-1,1.2c-0.4-0.5-0.8-1.2-1.2-2.1c-0.4-0.9-0.8-1.7-1-2.4c-0.2,0.7-0.5,1.6-1,2.5c-0.5,1-0.9,1.7-1.3,2.2
	L225.8,82.6L225.8,82.6z M227.7,83.8h9.9v4.3H229v1.3h9.2v1.6h-10.5v-4.4h8.6v-1.1h-8.6L227.7,83.8L227.7,83.8z M237.6,83h-1.3v-3.7
	h-3.6v-1.6h3.6v-3.3h1.3V83L237.6,83z"/>
<path class="st1" d="M243.9,78.2h7.3v2.2h-7.3V78.2z M248.2,85.3h5.7v-1.6h-12.8v1.6h5.8v6.2h1.3V85.3z M242.6,82h9.9v-7.2h-1.3v1.8
	h-7.3v-1.8h-1.3V82z"/>
<path class="st1" d="M258.6,76.7h7.2v2.5h-7.2V76.7z M257.3,90.7h10.2v-1.6h-8.8v-3h-1.3V90.7z M268.6,83.9v-1.6h-12.8v1.6h6v3.8
	h1.3v-3.8H268.6z M257.3,80.8h9.8v-5.7h-9.8V80.8z"/>
<path class="st1" d="M108.1,71.1c-1.4-8-25.4-10.5-53.5-5.6c-11.8,2.1-22.5,5.1-30.8,8.5c1.3,0,2.2,0.3,2.8,0.9
	c0.4,0.4,0.7,1.1,0.7,1.8v0.8h-2.8v-0.7c0-0.6-0.3-0.9-1-0.9c-0.5,0-0.8,0.2-0.9,0.7c0,0.1,0,0.4,0,0.6c0.3,1.2,4.4,2,4.8,4.2
	c0.1,0.3,0.1,0.9,0,1.8c-0.3,1.8-1.8,2.5-3.9,2.5c-2.8,0-3.9-1.3-3.9-3.2v-0.9h3v1.1c0,0.6,0.4,0.9,1,0.9c0.6,0,0.9-0.2,1-0.7
	c0.1-0.2,0.1-0.5,0-0.8c-0.5-1.4-4.4-2-4.8-4.2c-0.1-0.5-0.1-0.9,0-1.5c0-0.3,0.1-0.5,0.2-0.8C10.7,80,5.4,84.8,6.1,88.9
	c1.4,8,25.4,10.5,53.5,5.6c12.4-2.2,23.5-5.4,32-9c-0.1,0-0.2,0-0.4,0c-1.9,0-3.7-0.7-3.8-2.7c0-0.4,0-0.5,0-0.7v-4.5
	c0-0.2,0-0.5,0-0.7c0.2-1.9,1.7-2.7,3.8-2.7c1.6,0,3.6,0.5,3.8,2.7c0,0.3,0,0.6,0,0.7v0.4h-2.8v-0.6c0,0,0-0.3,0-0.4
	c0-0.2-0.2-0.8-1-0.8c-0.8,0-1,0.5-1,0.8c0,0.1,0,0.3,0,0.5v4.9c0,0.2,0,0.3,0,0.4c0,0.1,0.2,0.8,1.1,0.8s1-0.7,1.1-0.8
	c0-0.1,0-0.3,0-0.4v-1.5h-1.1v-1.6h3.9v2.9c0,0.2,0,0.3,0,0.7c0,0.5-0.2,1-0.5,1.3C103.6,79.8,108.8,75.2,108.1,71.1L108.1,71.1z
	 M35,85.3l-1.4-9.6h0l-1.5,9.6h-3l2-10.8H36l2,10.8H35z M49.4,85.3l-0.1-9.4h0l-1.8,9.4h-2.8L43,75.8h0l-0.1,9.4h-2.8l0.2-10.8h4.5
	l1.3,8.1h0.1l1.3-8.1h4.5l0.2,10.8H49.4z M62.4,83.1c-0.3,2.1-2.4,2.5-3.8,2.5c-2.4,0-3.9-1-3.9-3.1v-0.9h2.9v1.1
	c0,0.6,0.4,0.9,1,0.9c0.6,0,0.9-0.2,1-0.7c0.1-0.2,0.1-0.5,0-0.8c-0.5-1.3-4.3-2-4.8-4.2c-0.1-0.5-0.1-0.9,0-1.5
	c0.3-2,2.2-2.4,3.8-2.4c1.4,0,2.4,0.3,3,0.9c0.4,0.4,0.7,1.1,0.7,1.8v0.8h-2.7v-0.7c0-0.6-0.4-0.9-1-0.9c-0.5,0-0.8,0.2-0.9,0.7
	c0,0.1,0,0.3,0,0.5c0.3,1.2,4.4,1.9,4.8,4.1C62.5,81.7,62.5,82.3,62.4,83.1L62.4,83.1z M72.5,82.2c0,0.2,0,0.6,0,0.7
	c-0.2,1.8-1.4,2.7-3.8,2.7c-2.3,0-3.6-0.9-3.8-2.7c0-0.1,0-0.5,0-0.7v-7.8h2.8v8c0,0.2,0,0.3,0,0.4c0,0.2,0.2,0.8,1,0.8
	c0.8,0,1-0.6,1-0.8c0-0.1,0-0.2,0-0.4v-8h2.8V82.2z M80.7,85.1l-2.6-8.6h0l0.1,8.6h-2.7V74.4h4.1l2.4,8.3H82l-0.1-8.3h2.7v10.7H80.7
	z"/>
</svg>
